<mxfile host="app.diagrams.net" modified="2024-06-06T03:06:41.383Z" agent="Mozilla/5.0 (Windows NT 10.0; Win64; x64) AppleWebKit/537.36 (KHTML, like Gecko) Chrome/125.0.0.0 Safari/537.36" etag="0fFnl1sCCdqN5qXezMB8" version="24.4.13" type="github">
  <diagram name="第 1 页" id="p-eTHo3JTJvnrp08Zcws">
    <mxGraphModel dx="1434" dy="746" grid="1" gridSize="10" guides="1" tooltips="1" connect="1" arrows="1" fold="1" page="1" pageScale="1" pageWidth="827" pageHeight="1169" math="0" shadow="0">
      <root>
        <mxCell id="0" />
        <mxCell id="1" parent="0" />
        <mxCell id="hJ3luSX9rg0XJpjgN7IS-3" value="" style="edgeStyle=orthogonalEdgeStyle;rounded=0;orthogonalLoop=1;jettySize=auto;html=1;" edge="1" parent="1" source="hJ3luSX9rg0XJpjgN7IS-1" target="hJ3luSX9rg0XJpjgN7IS-2">
          <mxGeometry relative="1" as="geometry" />
        </mxCell>
        <mxCell id="hJ3luSX9rg0XJpjgN7IS-1" value="visual::Editor" style="rounded=1;whiteSpace=wrap;html=1;" vertex="1" parent="1">
          <mxGeometry x="60" y="300" width="120" height="60" as="geometry" />
        </mxCell>
        <mxCell id="hJ3luSX9rg0XJpjgN7IS-5" value="" style="edgeStyle=orthogonalEdgeStyle;rounded=0;orthogonalLoop=1;jettySize=auto;html=1;" edge="1" parent="1" source="hJ3luSX9rg0XJpjgN7IS-2" target="hJ3luSX9rg0XJpjgN7IS-4">
          <mxGeometry relative="1" as="geometry" />
        </mxCell>
        <mxCell id="hJ3luSX9rg0XJpjgN7IS-9" value="" style="edgeStyle=orthogonalEdgeStyle;rounded=0;orthogonalLoop=1;jettySize=auto;html=1;" edge="1" parent="1" source="hJ3luSX9rg0XJpjgN7IS-2" target="hJ3luSX9rg0XJpjgN7IS-8">
          <mxGeometry relative="1" as="geometry" />
        </mxCell>
        <mxCell id="hJ3luSX9rg0XJpjgN7IS-2" value="visual::DefEditorImpl" style="rounded=1;whiteSpace=wrap;html=1;" vertex="1" parent="1">
          <mxGeometry x="220" y="300" width="120" height="60" as="geometry" />
        </mxCell>
        <mxCell id="hJ3luSX9rg0XJpjgN7IS-7" value="" style="edgeStyle=orthogonalEdgeStyle;rounded=0;orthogonalLoop=1;jettySize=auto;html=1;" edge="1" parent="1" source="hJ3luSX9rg0XJpjgN7IS-4" target="hJ3luSX9rg0XJpjgN7IS-6">
          <mxGeometry relative="1" as="geometry" />
        </mxCell>
        <mxCell id="hJ3luSX9rg0XJpjgN7IS-4" value="visual::DragEditor" style="rounded=1;whiteSpace=wrap;html=1;" vertex="1" parent="1">
          <mxGeometry x="370" y="300" width="120" height="60" as="geometry" />
        </mxCell>
        <mxCell id="hJ3luSX9rg0XJpjgN7IS-6" value="all kinds of editors" style="rounded=1;whiteSpace=wrap;html=1;" vertex="1" parent="1">
          <mxGeometry x="520" y="300" width="120" height="60" as="geometry" />
        </mxCell>
        <mxCell id="hJ3luSX9rg0XJpjgN7IS-8" value="visual::PickEditor" style="rounded=1;whiteSpace=wrap;html=1;" vertex="1" parent="1">
          <mxGeometry x="220" y="390" width="120" height="60" as="geometry" />
        </mxCell>
      </root>
    </mxGraphModel>
  </diagram>
</mxfile>
